<svg width="28" height="28" viewBox="0 0 28 28" fill="none" xmlns="http://www.w3.org/2000/svg">
<path d="M28 28L20.65 21.913L21.532 24.3478H3.5C2.57174 24.3478 1.6815 24.0272 1.02513 23.4564C0.368749 22.8856 0 22.1115 0 21.3043V3.04348C0 2.2363 0.368749 1.46218 1.02513 0.891414C1.6815 0.320651 2.57174 0 3.5 0H24.5C25.4283 0 26.3185 0.320651 26.9749 0.891414C27.6313 1.46218 28 2.2363 28 3.04348V28ZM14 7.06087C10.248 7.06087 7.616 8.46087 7.616 8.46087C9.058 7.34087 11.578 6.69565 11.578 6.69565L11.34 6.4887C8.974 6.52522 6.832 7.94956 6.832 7.94956C4.424 12.32 4.578 16.0939 4.578 16.0939C6.538 18.2974 9.45 18.1391 9.45 18.1391L10.444 17.0435C8.694 16.7148 7.588 15.3635 7.588 15.3635C7.588 15.3635 10.22 16.9217 14 16.9217C17.78 16.9217 20.412 15.3635 20.412 15.3635C20.412 15.3635 19.306 16.7148 17.556 17.0435L18.55 18.1391C18.55 18.1391 21.462 18.2974 23.422 16.0939C23.422 16.0939 23.576 12.32 21.168 7.94956C21.168 7.94956 19.026 6.52522 16.66 6.4887L16.422 6.69565C16.422 6.69565 18.942 7.34087 20.384 8.46087C20.384 8.46087 17.752 7.06087 14 7.06087ZM11.102 11.6748C12.012 11.6748 12.754 12.3687 12.74 13.2209C12.74 14.0609 12.012 14.767 11.102 14.767C10.206 14.767 9.478 14.0609 9.478 13.2209C9.478 12.3687 10.192 11.6748 11.102 11.6748ZM16.94 11.6748C17.85 11.6748 18.578 12.3687 18.578 13.2209C18.578 14.0609 17.85 14.767 16.94 14.767C16.044 14.767 15.316 14.0609 15.316 13.2209C15.316 12.3687 16.03 11.6748 16.94 11.6748Z" fill="#E4E3E3"/>
</svg>
