<svg width="42" height="47" viewBox="0 0 42 47" fill="none" xmlns="http://www.w3.org/2000/svg">
<path d="M35 23.2651C35 23.684 35.3136 24.0241 35.7 24.0241H38.5C38.8863 24.0241 39.1999 23.684 39.1999 23.2651C39.1999 22.8461 38.8863 22.5061 38.5 22.5061H35.7C35.3136 22.5061 35 22.8461 35 23.2651Z" fill="#EE2A7B"/>
<path d="M21 0.493988C9.42063 0.493988 0 10.7091 0 23.2651C0 26.8758 0.756738 30.3294 2.24913 33.5288C2.42345 33.903 2.84411 34.0533 3.18995 33.8643C3.53505 33.6746 3.67295 33.2183 3.49863 32.8441C2.10632 29.8588 1.40003 26.6352 1.40003 23.2651C1.40003 11.5463 10.1927 2.01209 21 2.01209C31.8073 2.01209 40.6 11.5463 40.6 23.2651C40.6 34.9838 31.8073 44.5181 21 44.5181C15.2509 44.5181 9.73768 41.7066 5.98779 36.9277H33.6C33.9864 36.9277 34.3 36.5877 34.3 36.1687C34.3 35.7498 33.9864 35.4097 33.6 35.4097H4.53879C4.25603 35.4097 4.00608 35.6002 3.89755 35.8841C3.80166 36.1354 3.84226 36.4245 3.99205 36.6385C7.98837 42.5234 14.3458 46.0362 21 46.0362C32.5794 46.0362 42 35.821 42 23.2651C42 10.7091 32.5794 0.493988 21 0.493988Z" fill="#EE2A7B"/>
<path d="M37.7223 17.6202L35.0175 18.4066C34.6444 18.5151 34.4225 18.931 34.5226 19.3356C34.6066 19.6749 34.8894 19.8989 35.1988 19.8989C35.2583 19.8989 35.3199 19.8905 35.3801 19.8723L38.0842 19.0867C38.458 18.9782 38.6791 18.5621 38.5791 18.1576C38.479 17.7522 38.0947 17.5093 37.7223 17.6202Z" fill="#EE2A7B"/>
<path d="M29.4959 7.55071C26.9255 5.91351 23.9876 5.04821 21 5.04821C11.7369 5.04821 4.20001 13.2207 4.20001 23.2651C4.20001 27.3153 5.21851 30.888 7.14559 33.5963C7.28348 33.7898 7.4907 33.8915 7.69996 33.8915C7.84975 33.8915 8.00027 33.8399 8.12767 33.7336C8.43356 33.4771 8.49025 33.0004 8.25432 32.6687C6.4932 30.1935 5.60004 27.0299 5.60004 23.2651C5.60004 14.0572 12.5083 6.56631 21 6.56631C23.7384 6.56631 26.4313 7.35947 28.7875 8.86014C29.1207 9.07193 29.5491 8.95202 29.7451 8.58991C29.9411 8.2286 29.8298 7.7633 29.4959 7.55071Z" fill="#EE2A7B"/>
<path d="M35.8043 13.1198L33.3802 14.6371C33.0456 14.8465 32.9301 15.3111 33.1232 15.6739C33.2534 15.9176 33.4886 16.0535 33.7308 16.0535C33.8491 16.0535 33.9696 16.0208 34.0801 15.9518L36.5042 14.4345C36.8388 14.225 36.9543 13.7613 36.7612 13.3976C36.5673 13.034 36.1396 12.9096 35.8043 13.1198Z" fill="#EE2A7B"/>
<path d="M32.4051 9.82479L22.4133 20.6593C21.9968 20.3921 21.518 20.229 21 20.229C19.4558 20.229 18.2 21.5907 18.2 23.2651C18.2 23.8268 18.3505 24.3459 18.5969 24.7976L16.3051 27.2827C16.0314 27.5795 16.0314 28.0592 16.3051 28.3559C16.4416 28.5039 16.6208 28.5783 16.8 28.5783C16.9792 28.5783 17.1584 28.5039 17.2949 28.3559L19.5867 25.8709C20.0031 26.1381 20.482 26.3012 21 26.3012C22.5442 26.3012 23.8 24.9395 23.8 23.2651C23.8 22.7034 23.6494 22.1842 23.4031 21.7326L33.3949 10.8981C33.6687 10.6012 33.6687 10.1215 33.3949 9.82479C33.1212 9.52806 32.6788 9.52806 32.4051 9.82479ZM21 24.7832C20.2279 24.7832 19.6 24.1024 19.6 23.2651C19.6 22.4279 20.2278 21.747 21 21.747C21.7721 21.747 22.4 22.4278 22.4 23.2651C22.4 24.1023 21.7721 24.7832 21 24.7832Z" fill="#EE2A7B"/>
</svg>
